<svg width="29" height="29" viewBox="0 0 29 29" fill="none" xmlns="http://www.w3.org/2000/svg">
<path d="M14.5 0.75C6.91 0.75 0.75 6.91 0.75 14.5C0.75 22.09 6.91 28.25 14.5 28.25C22.09 28.25 28.25 22.09 28.25 14.5C28.25 6.91 22.09 0.75 14.5 0.75ZM14.5 4.875C16.7825 4.875 18.625 6.7175 18.625 9C18.625 11.2825 16.7825 13.125 14.5 13.125C12.2175 13.125 10.375 11.2825 10.375 9C10.375 6.7175 12.2175 4.875 14.5 4.875ZM14.5 24.4C11.0625 24.4 8.02375 22.64 6.25 19.9725C6.29125 17.2362 11.75 15.7375 14.5 15.7375C17.2362 15.7375 22.7087 17.2362 22.75 19.9725C20.9762 22.64 17.9375 24.4 14.5 24.4Z" fill="black"/>
</svg>
